<svg width="100" height="100" viewBox="0 0 100 100" fill="none" xmlns="http://www.w3.org/2000/svg">
	<g id="triangles" clip-path="url(#clip0_665_16)">
		<g id="light-group">
			<path id="light1" d="M43 48.2679C44.3333 49.0377 44.3333 50.9623 43 51.7321L11.5 69.9186C10.1667 70.6884 8.5 69.7261 8.5 68.1865V31.8135C8.5 30.2739 10.1667 29.3116 11.5 30.0814L43 48.2679Z" fill="#C0B1FB"/>
		</g>
		<g id="dark-group">
			<path id="dark1" d="M68 48.2679C69.3333 49.0377 69.3333 50.9623 68 51.7321L36.5 69.9186C35.1667 70.6884 33.5 69.7261 33.5 68.1865V31.8135C33.5 30.2739 35.1667 29.3116 36.5 30.0814L68 48.2679Z" fill="#7B4293"/>
			<path id="dark2" d="M43 48.2679C44.3333 49.0377 44.3333 50.9623 43 51.7321L11.5 69.9186C10.1667 70.6884 8.5 69.7261 8.5 68.1865V31.8135C8.5 30.2739 10.1667 29.3116 11.5 30.0814L43 48.2679Z" fill="#8155CC"/>
		</g>
	</g>
	<defs>
		<clipPath id="clip0_665_16">
			<rect width="100" height="100" fill="white"/>
		</clipPath>
	</defs>
</svg>
